<?xml version="1.0" encoding="utf-8"?>
<!-- Generator: Adobe Illustrator 25.3.0, SVG Export Plug-In . SVG Version: 6.00 Build 0)  -->
<svg version="1.1" id="레이어_1" focusable="false"
	 xmlns="http://www.w3.org/2000/svg" xmlns:xlink="http://www.w3.org/1999/xlink" x="0px" y="0px" viewBox="0 0 512 512"
	 style="enable-background:new 0 0 512 512;" xml:space="preserve">
<style type="text/css">
	.st0{fill:none;stroke:#000000;stroke-width:20;stroke-miterlimit:10;}
</style>
<path class="st0" d="M256.1,135.6c-66.6,0-120.4,53.7-120.4,120.4s53.7,120.4,120.4,120.4S376.4,322.6,376.4,256
	S322.7,135.6,256.1,135.6z M256.1,334.3c-43.1,0-78.3-35.1-78.3-78.3s35.1-78.3,78.3-78.3s78.3,35.1,78.3,78.3
	S299.1,334.3,256.1,334.3L256.1,334.3z M409.4,130.7c0,15.6-12.6,28.1-28.1,28.1c-15.6,0-28.1-12.6-28.1-28.1s12.6-28.1,28.1-28.1
	C396.9,102.6,409.4,115.2,409.4,130.7z M489.1,159.2c-1.8-37.6-10.4-70.9-37.9-98.4c-27.4-27.4-60.8-36-98.4-37.9
	c-38.8-2.2-154.9-2.2-193.7,0c-37.5,1.8-70.8,10.4-98.4,37.8s-36,60.8-37.9,98.4c-2.2,38.8-2.2,154.9,0,193.7
	c1.8,37.6,10.4,70.9,37.9,98.4s60.8,36,98.4,37.9c38.8,2.2,154.9,2.2,193.7,0c37.6-1.8,70.9-10.4,98.4-37.9
	c27.4-27.4,36-60.8,37.9-98.4C491.3,314,491.3,198,489.1,159.2L489.1,159.2z M439.1,394.4c-8.2,20.5-24,36.4-44.6,44.6
	c-30.9,12.3-104.2,9.4-138.4,9.4s-107.6,2.7-138.4-9.4c-20.5-8.2-36.4-24-44.6-44.6c-12.3-30.9-9.4-104.2-9.4-138.4
	S60.9,148.4,73,117.6c8.2-20.5,24-36.4,44.6-44.6c30.9-12.3,104.2-9.4,138.4-9.4s107.6-2.7,138.4,9.4c20.5,8.2,36.4,24,44.6,44.6
	c12.3,30.9,9.4,104.2,9.4,138.4S451.3,363.6,439.1,394.4z"/>
</svg>
